# Blender v2.93.5 OBJ File: 'screen-90.blend'
# www.blender.org
o Plane
v 2.093317 -2.000000 -1.132920
v -2.093317 -2.000000 -1.132920
v 2.093317 2.000000 -1.132920
v -2.093318 2.000000 -1.132920
v 0.977757 -2.000000 -1.833872
v 1.284469 -2.000000 -1.706828
v 1.575027 -2.000000 -1.546243
v 1.845778 -2.000000 -1.354134
v 0.658751 -2.000000 -1.925777
v 0.331459 -2.000000 -1.981386
v 0.000000 -2.000000 -2.000000
v -0.331459 -2.000000 -1.981386
v -0.658750 -2.000000 -1.925777
v -0.977757 -2.000000 -1.833872
v -1.284468 -2.000000 -1.706828
v -1.575027 -2.000000 -1.546243
v -1.845778 -2.000000 -1.354134
v -1.845778 2.000000 -1.354134
v -1.575027 2.000000 -1.546243
v -1.284469 2.000000 -1.706828
v -0.977758 2.000000 -1.833872
v -0.658751 2.000000 -1.925777
v -0.331460 2.000000 -1.981386
v -0.000000 2.000000 -2.000000
v 0.331459 2.000000 -1.981386
v 0.658750 2.000000 -1.925777
v 0.977757 2.000000 -1.833872
v 1.284468 2.000000 -1.706829
v 1.575026 2.000000 -1.546243
v 1.845778 2.000000 -1.354134
vt 0.928571 0.000000
vt 0.928571 1.000000
vt 1.000000 1.000000
vt 1.000000 0.000000
vt 0.000000 0.000000
vt 0.000000 1.000000
vt 0.071429 1.000000
vt 0.071429 0.000000
vt 0.142857 1.000000
vt 0.142857 0.000000
vt 0.214286 1.000000
vt 0.214286 0.000000
vt 0.285714 1.000000
vt 0.285714 0.000000
vt 0.357143 1.000000
vt 0.357143 0.000000
vt 0.428571 1.000000
vt 0.428571 0.000000
vt 0.500000 1.000000
vt 0.500000 0.000000
vt 0.571429 1.000000
vt 0.571429 0.000000
vt 0.642857 1.000000
vt 0.642857 0.000000
vt 0.714286 1.000000
vt 0.714286 0.000000
vt 0.785714 1.000000
vt 0.785714 0.000000
vt 0.857143 1.000000
vt 0.857143 0.000000
vn 0.6235 0.0000 0.7818
vn 0.6663 0.0000 0.7456
vn -0.6663 0.0000 0.7456
vn -0.6235 0.0000 0.7818
vn -0.5320 0.0000 0.8467
vn -0.4339 0.0000 0.9010
vn -0.3303 0.0000 0.9439
vn -0.2225 0.0000 0.9749
vn -0.1119 0.0000 0.9937
vn 0.0000 0.0000 1.0000
vn 0.1119 0.0000 0.9937
vn 0.2225 0.0000 0.9749
vn 0.3303 0.0000 0.9439
vn 0.4339 0.0000 0.9010
vn 0.5320 0.0000 0.8467
s 1
f 17/1/1 18/2/1 4/3/2 2/4/2
f 1/5/3 3/6/3 30/7/4 8/8/4
f 8/8/4 30/7/4 29/9/5 7/10/5
f 7/10/5 29/9/5 28/11/6 6/12/6
f 6/12/6 28/11/6 27/13/7 5/14/7
f 5/14/7 27/13/7 26/15/8 9/16/8
f 9/16/8 26/15/8 25/17/9 10/18/9
f 10/18/9 25/17/9 24/19/10 11/20/10
f 11/20/10 24/19/10 23/21/11 12/22/11
f 12/22/11 23/21/11 22/23/12 13/24/12
f 13/24/12 22/23/12 21/25/13 14/26/13
f 14/26/13 21/25/13 20/27/14 15/28/14
f 15/28/14 20/27/14 19/29/15 16/30/15
f 16/30/15 19/29/15 18/2/1 17/1/1
