{
    "asset" : {
        "generator" : "Khronos glTF Blender I/O v3.4.50",
        "version" : "2.0"
    },
    "scene" : 0,
    "scenes" : [
        {
            "name" : "Scene",
            "nodes" : [
                0
            ]
        }
    ],
    "nodes" : [
        {
            "mesh" : 0,
            "name" : "bollard-02-piece-03"
        }
    ],
    "meshes" : [
        {
            "name" : "Cube.015",
            "primitives" : [
                {
                    "attributes" : {
                        "POSITION" : 0,
                        "TEXCOORD_0" : 1,
                        "NORMAL" : 2
                    },
                    "indices" : 3
                }
            ]
        }
    ],
    "accessors" : [
        {
            "bufferView" : 0,
            "componentType" : 5126,
            "count" : 509,
            "max" : [
                0.9967429637908936,
                1.204972743988037,
                1.0103737115859985
            ],
            "min" : [
                -0.9967429637908936,
                0,
                -1.0103737115859985
            ],
            "type" : "VEC3"
        },
        {
            "bufferView" : 1,
            "componentType" : 5126,
            "count" : 509,
            "type" : "VEC2"
        },
        {
            "bufferView" : 2,
            "componentType" : 5126,
            "count" : 509,
            "type" : "VEC3"
        },
        {
            "bufferView" : 3,
            "componentType" : 5123,
            "count" : 2040,
            "type" : "SCALAR"
        }
    ],
    "bufferViews" : [
        {
            "buffer" : 0,
            "byteLength" : 6108,
            "byteOffset" : 0,
            "target" : 34962
        },
        {
            "buffer" : 0,
            "byteLength" : 4072,
            "byteOffset" : 6108,
            "target" : 34962
        },
        {
            "buffer" : 0,
            "byteLength" : 6108,
            "byteOffset" : 10180,
            "target" : 34962
        },
        {
            "buffer" : 0,
            "byteLength" : 4080,
            "byteOffset" : 16288,
            "target" : 34963
        }
    ],
    "buffers" : [
        {
            "byteLength" : 20368,
            "uri" : "data:application/octet-stream;base64,"
        }
    ]
}
