# XSI Wavefront OBJ Export v3.0
# File Created: Wed Mar 24 00:07:08 2021
# XSI Version: 13.0.114.0
o disc
# Hierarchy (from self to top father)
g disc

#begin 112 vertices
v -0.002495 0.000000 0.000000
v -0.168409 0.000000 0.000000
v -0.334323 0.000000 0.000000
v -0.500237 0.000000 0.000000
v -0.666152 0.000000 0.000000
v -0.832066 0.000000 0.000000
v -0.997980 0.000000 0.000000
v -0.002305 -0.000955 0.000000
v -0.155590 -0.064447 0.000000
v -0.308874 -0.127940 0.000000
v -0.462159 -0.191433 0.000000
v -0.615444 -0.254925 0.000000
v -0.768729 -0.318418 0.000000
v -0.922013 -0.381910 0.000000
v -0.001764 -0.001764 0.000000
v -0.119083 -0.119083 0.000000
v -0.236402 -0.236402 0.000000
v -0.353721 -0.353721 0.000000
v -0.471040 -0.471040 0.000000
v -0.588359 -0.588359 0.000000
v -0.705678 -0.705678 0.000000
v -0.000955 -0.002305 0.000000
v -0.064447 -0.155590 0.000000
v -0.127940 -0.308874 0.000000
v -0.191433 -0.462159 0.000000
v -0.254925 -0.615444 0.000000
v -0.318418 -0.768729 0.000000
v -0.381910 -0.922013 0.000000
v -0.000000 -0.002495 0.000000
v -0.000000 -0.168409 0.000000
v -0.000000 -0.334323 0.000000
v -0.000000 -0.500237 0.000000
v -0.000000 -0.666152 0.000000
v -0.000000 -0.832066 0.000000
v -0.000000 -0.997980 0.000000
v 0.000955 -0.002305 0.000000
v 0.064447 -0.155590 0.000000
v 0.127940 -0.308874 0.000000
v 0.191433 -0.462159 0.000000
v 0.254925 -0.615444 0.000000
v 0.318418 -0.768729 0.000000
v 0.381910 -0.922013 0.000000
v 0.001764 -0.001764 0.000000
v 0.119083 -0.119083 0.000000
v 0.236402 -0.236402 0.000000
v 0.353721 -0.353721 0.000000
v 0.471040 -0.471040 0.000000
v 0.588359 -0.588359 0.000000
v 0.705678 -0.705678 0.000000
v 0.002305 -0.000955 0.000000
v 0.155590 -0.064447 0.000000
v 0.308874 -0.127940 0.000000
v 0.462159 -0.191433 0.000000
v 0.615444 -0.254925 0.000000
v 0.768729 -0.318418 0.000000
v 0.922013 -0.381910 0.000000
v 0.002495 -0.000000 0.000000
v 0.168409 -0.000000 0.000000
v 0.334323 -0.000000 0.000000
v 0.500237 -0.000000 0.000000
v 0.666152 -0.000000 0.000000
v 0.832066 -0.000000 0.000000
v 0.997980 -0.000000 0.000000
v 0.002305 0.000955 -0.000000
v 0.155590 0.064447 -0.000000
v 0.308874 0.127940 -0.000000
v 0.462159 0.191433 -0.000000
v 0.615444 0.254925 -0.000000
v 0.768729 0.318418 -0.000000
v 0.922013 0.381910 -0.000000
v 0.001764 0.001764 -0.000000
v 0.119083 0.119083 -0.000000
v 0.236402 0.236402 -0.000000
v 0.353721 0.353721 -0.000000
v 0.471040 0.471040 -0.000000
v 0.588359 0.588359 -0.000000
v 0.705678 0.705678 -0.000000
v 0.000955 0.002305 -0.000000
v 0.064447 0.155590 -0.000000
v 0.127940 0.308874 -0.000000
v 0.191433 0.462159 -0.000000
v 0.254925 0.615444 -0.000000
v 0.318418 0.768729 -0.000000
v 0.381910 0.922013 -0.000000
v 0.000000 0.002495 -0.000000
v 0.000000 0.168409 -0.000000
v 0.000000 0.334323 -0.000000
v 0.000000 0.500237 -0.000000
v 0.000000 0.666152 -0.000000
v 0.000000 0.832066 -0.000000
v 0.000000 0.997980 -0.000000
v -0.000955 0.002305 -0.000000
v -0.064447 0.155590 -0.000000
v -0.127940 0.308874 -0.000000
v -0.191433 0.462159 -0.000000
v -0.254925 0.615444 -0.000000
v -0.318418 0.768729 -0.000000
v -0.381910 0.922013 -0.000000
v -0.001764 0.001764 -0.000000
v -0.119083 0.119083 -0.000000
v -0.236402 0.236402 -0.000000
v -0.353721 0.353721 -0.000000
v -0.471040 0.471040 -0.000000
v -0.588359 0.588359 -0.000000
v -0.705678 0.705678 -0.000000
v -0.002305 0.000955 -0.000000
v -0.155590 0.064447 -0.000000
v -0.308874 0.127940 -0.000000
v -0.462159 0.191433 -0.000000
v -0.615444 0.254925 -0.000000
v -0.768729 0.318418 -0.000000
v -0.922013 0.381910 -0.000000
#end 112 vertices

#begin 384 normals
vn 0.000000 0.000000 1.000000
vn -0.000000 0.000000 1.000000
vn 0.000000 0.000000 1.000000
vn 0.000000 0.000000 1.000000
vn -0.000000 0.000000 1.000000
vn -0.000000 0.000000 1.000000
vn 0.000000 0.000000 1.000000
vn 0.000000 0.000000 1.000000
vn -0.000000 0.000000 1.000000
vn 0.000000 0.000000 1.000000
vn 0.000000 0.000000 1.000000
vn 0.000000 0.000000 1.000000
vn 0.000000 0.000000 1.000000
vn 0.000000 0.000000 1.000000
vn 0.000000 0.000000 1.000000
vn 0.000000 0.000000 1.000000
vn 0.000000 0.000000 1.000000
vn 0.000000 0.000000 1.000000
vn -0.000000 0.000000 1.000000
vn 0.000000 0.000000 1.000000
vn 0.000000 0.000000 1.000000
vn 0.000000 0.000000 1.000000
vn -0.000000 0.000000 1.000000
vn -0.000000 0.000000 1.000000
vn 0.000000 0.000000 1.000000
vn 0.000000 0.000000 1.000000
vn -0.000000 0.000000 1.000000
vn 0.000000 0.000000 1.000000
vn 0.000000 0.000000 1.000000
vn 0.000000 0.000000 1.000000
vn -0.000000 0.000000 1.000000
vn -0.000000 0.000000 1.000000
vn 0.000000 0.000000 1.000000
vn 0.000000 0.000000 1.000000
vn 0.000000 0.000000 1.000000
vn -0.000000 0.000000 1.000000
vn 0.000000 0.000000 1.000000
vn 0.000000 0.000000 1.000000
vn 0.000000 0.000000 1.000000
vn 0.000000 0.000000 1.000000
vn 0.000000 0.000000 1.000000
vn -0.000000 0.000000 1.000000
vn -0.000000 0.000000 1.000000
vn 0.000000 0.000000 1.000000
vn -0.000000 0.000000 1.000000
vn -0.000000 0.000000 1.000000
vn -0.000000 0.000000 1.000000
vn -0.000000 0.000000 1.000000
vn 0.000000 0.000000 1.000000
vn -0.000000 0.000000 1.000000
vn -0.000000 0.000000 1.000000
vn 0.000000 0.000000 1.000000
vn -0.000000 0.000000 1.000000
vn -0.000000 0.000000 1.000000
vn -0.000000 0.000000 1.000000
vn -0.000000 0.000000 1.000000
vn -0.000000 0.000000 1.000000
vn 0.000000 0.000000 1.000000
vn -0.000000 0.000000 1.000000
vn -0.000000 0.000000 1.000000
vn 0.000000 0.000000 1.000000
vn 0.000000 0.000000 1.000000
vn -0.000000 0.000000 1.000000
vn -0.000000 0.000000 1.000000
vn 0.000000 0.000000 1.000000
vn -0.000000 0.000000 1.000000
vn -0.000000 0.000000 1.000000
vn -0.000000 0.000000 1.000000
vn -0.000000 0.000000 1.000000
vn -0.000000 0.000000 1.000000
vn -0.000000 0.000000 1.000000
vn -0.000000 0.000000 1.000000
vn 0.000000 0.000000 1.000000
vn -0.000000 0.000000 1.000000
vn 0.000000 0.000000 1.000000
vn 0.000000 0.000000 1.000000
vn -0.000000 0.000000 1.000000
vn -0.000000 0.000000 1.000000
vn 0.000000 0.000000 1.000000
vn 0.000000 0.000000 1.000000
vn -0.000000 0.000000 1.000000
vn -0.000000 0.000000 1.000000
vn -0.000000 0.000000 1.000000
vn 0.000000 0.000000 1.000000
vn -0.000000 0.000000 1.000000
vn -0.000000 0.000000 1.000000
vn 0.000000 0.000000 1.000000
vn -0.000000 0.000000 1.000000
vn -0.000000 0.000000 1.000000
vn -0.000000 0.000000 1.000000
vn 0.000000 0.000000 1.000000
vn 0.000000 0.000000 1.000000
vn -0.000000 0.000000 1.000000
vn -0.000000 0.000000 1.000000
vn 0.000000 0.000000 1.000000
vn 0.000000 0.000000 1.000000
vn 0.000000 0.000000 1.000000
vn 0.000000 0.000000 1.000000
vn -0.000000 0.000000 1.000000
vn 0.000000 0.000000 1.000000
vn 0.000000 0.000000 1.000000
vn 0.000000 0.000000 1.000000
vn 0.000000 0.000000 1.000000
vn -0.000000 0.000000 1.000000
vn 0.000000 0.000000 1.000000
vn -0.000000 0.000000 1.000000
vn 0.000000 0.000000 1.000000
vn 0.000000 0.000000 1.000000
vn -0.000000 0.000000 1.000000
vn 0.000000 0.000000 1.000000
vn 0.000000 0.000000 1.000000
vn 0.000000 0.000000 1.000000
vn 0.000000 0.000000 1.000000
vn 0.000000 0.000000 1.000000
vn 0.000000 0.000000 1.000000
vn 0.000000 0.000000 1.000000
vn 0.000000 0.000000 1.000000
vn 0.000000 0.000000 1.000000
vn -0.000000 0.000000 1.000000
vn 0.000000 0.000000 1.000000
vn 0.000000 0.000000 1.000000
vn -0.000000 0.000000 1.000000
vn 0.000000 0.000000 1.000000
vn 0.000000 0.000000 1.000000
vn -0.000000 0.000000 1.000000
vn 0.000000 0.000000 1.000000
vn 0.000000 0.000000 1.000000
vn 0.000000 0.000000 1.000000
vn 0.000000 0.000000 1.000000
vn 0.000000 0.000000 1.000000
vn -0.000000 0.000000 1.000000
vn 0.000000 0.000000 1.000000
vn 0.000000 0.000000 1.000000
vn 0.000000 0.000000 1.000000
vn 0.000000 0.000000 1.000000
vn -0.000000 0.000000 1.000000
vn 0.000000 0.000000 1.000000
vn 0.000000 0.000000 1.000000
vn 0.000000 0.000000 1.000000
vn 0.000000 0.000000 1.000000
vn 0.000000 0.000000 1.000000
vn -0.000000 0.000000 1.000000
vn -0.000000 0.000000 1.000000
vn 0.000000 0.000000 1.000000
vn 0.000000 0.000000 1.000000
vn 0.000000 0.000000 1.000000
vn -0.000000 0.000000 1.000000
vn -0.000000 0.000000 1.000000
vn 0.000000 0.000000 1.000000
vn 0.000000 0.000000 1.000000
vn -0.000000 0.000000 1.000000
vn -0.000000 0.000000 1.000000
vn 0.000000 0.000000 1.000000
vn -0.000000 0.000000 1.000000
vn -0.000000 0.000000 1.000000
vn -0.000000 0.000000 1.000000
vn -0.000000 0.000000 1.000000
vn 0.000000 0.000000 1.000000
vn 0.000000 0.000000 1.000000
vn -0.000000 0.000000 1.000000
vn 0.000000 0.000000 1.000000
vn 0.000000 0.000000 1.000000
vn 0.000000 0.000000 1.000000
vn 0.000000 0.000000 1.000000
vn 0.000000 0.000000 1.000000
vn -0.000000 0.000000 1.000000
vn -0.000000 0.000000 1.000000
vn 0.000000 0.000000 1.000000
vn -0.000000 0.000000 1.000000
vn -0.000000 0.000000 1.000000
vn 0.000000 0.000000 1.000000
vn 0.000000 0.000000 1.000000
vn -0.000000 0.000000 1.000000
vn -0.000000 0.000000 1.000000
vn 0.000000 0.000000 1.000000
vn 0.000000 0.000000 1.000000
vn -0.000000 0.000000 1.000000
vn -0.000000 0.000000 1.000000
vn 0.000000 0.000000 1.000000
vn 0.000000 0.000000 1.000000
vn -0.000000 0.000000 1.000000
vn 0.000000 0.000000 1.000000
vn 0.000000 0.000000 1.000000
vn 0.000000 0.000000 1.000000
vn 0.000000 0.000000 1.000000
vn 0.000000 0.000000 1.000000
vn 0.000000 0.000000 1.000000
vn 0.000000 0.000000 1.000000
vn 0.000000 0.000000 1.000000
vn -0.000000 0.000000 1.000000
vn 0.000000 0.000000 1.000000
vn 0.000000 0.000000 1.000000
vn 0.000000 0.000000 1.000000
vn 0.000000 0.000000 1.000000
vn 0.000000 0.000000 1.000000
vn 0.000000 0.000000 1.000000
vn 0.000000 0.000000 1.000000
vn 0.000000 0.000000 1.000000
vn 0.000000 0.000000 1.000000
vn 0.000000 0.000000 1.000000
vn 0.000000 0.000000 1.000000
vn 0.000000 0.000000 1.000000
vn 0.000000 0.000000 1.000000
vn 0.000000 0.000000 1.000000
vn 0.000000 0.000000 1.000000
vn 0.000000 0.000000 1.000000
vn 0.000000 0.000000 1.000000
vn 0.000000 0.000000 1.000000
vn 0.000000 0.000000 1.000000
vn 0.000000 0.000000 1.000000
vn -0.000000 0.000000 1.000000
vn 0.000000 0.000000 1.000000
vn 0.000000 0.000000 1.000000
vn 0.000000 0.000000 1.000000
vn -0.000000 0.000000 1.000000
vn -0.000000 0.000000 1.000000
vn 0.000000 0.000000 1.000000
vn 0.000000 0.000000 1.000000
vn -0.000000 0.000000 1.000000
vn 0.000000 0.000000 1.000000
vn 0.000000 0.000000 1.000000
vn 0.000000 0.000000 1.000000
vn -0.000000 0.000000 1.000000
vn -0.000000 0.000000 1.000000
vn 0.000000 0.000000 1.000000
vn 0.000000 0.000000 1.000000
vn 0.000000 0.000000 1.000000
vn -0.000000 0.000000 1.000000
vn 0.000000 0.000000 1.000000
vn 0.000000 0.000000 1.000000
vn 0.000000 0.000000 1.000000
vn 0.000000 0.000000 1.000000
vn 0.000000 0.000000 1.000000
vn -0.000000 0.000000 1.000000
vn -0.000000 0.000000 1.000000
vn 0.000000 0.000000 1.000000
vn -0.000000 0.000000 1.000000
vn -0.000000 0.000000 1.000000
vn -0.000000 0.000000 1.000000
vn -0.000000 0.000000 1.000000
vn 0.000000 0.000000 1.000000
vn -0.000000 0.000000 1.000000
vn -0.000000 0.000000 1.000000
vn -0.000000 0.000000 1.000000
vn -0.000000 0.000000 1.000000
vn -0.000000 0.000000 1.000000
vn -0.000000 0.000000 1.000000
vn -0.000000 0.000000 1.000000
vn -0.000000 0.000000 1.000000
vn 0.000000 0.000000 1.000000
vn -0.000000 0.000000 1.000000
vn -0.000000 0.000000 1.000000
vn 0.000000 0.000000 1.000000
vn 0.000000 0.000000 1.000000
vn -0.000000 0.000000 1.000000
vn -0.000000 0.000000 1.000000
vn 0.000000 0.000000 1.000000
vn -0.000000 0.000000 1.000000
vn -0.000000 0.000000 1.000000
vn -0.000000 0.000000 1.000000
vn -0.000000 0.000000 1.000000
vn -0.000000 0.000000 1.000000
vn -0.000000 0.000000 1.000000
vn -0.000000 0.000000 1.000000
vn -0.000000 0.000000 1.000000
vn -0.000000 0.000000 1.000000
vn -0.000000 0.000000 1.000000
vn 0.000000 0.000000 1.000000
vn -0.000000 0.000000 1.000000
vn -0.000000 0.000000 1.000000
vn -0.000000 0.000000 1.000000
vn -0.000000 0.000000 1.000000
vn -0.000000 0.000000 1.000000
vn -0.000000 0.000000 1.000000
vn -0.000000 0.000000 1.000000
vn -0.000000 0.000000 1.000000
vn -0.000000 0.000000 1.000000
vn -0.000000 0.000000 1.000000
vn -0.000000 0.000000 1.000000
vn -0.000000 0.000000 1.000000
vn -0.000000 0.000000 1.000000
vn -0.000000 0.000000 1.000000
vn -0.000000 0.000000 1.000000
vn -0.000000 0.000000 1.000000
vn -0.000000 0.000000 1.000000
vn -0.000000 0.000000 1.000000
vn -0.000000 0.000000 1.000000
vn -0.000000 0.000000 1.000000
vn 0.000000 0.000000 1.000000
vn -0.000000 0.000000 1.000000
vn 0.000000 0.000000 1.000000
vn 0.000000 0.000000 1.000000
vn -0.000000 0.000000 1.000000
vn -0.000000 0.000000 1.000000
vn 0.000000 0.000000 1.000000
vn 0.000000 0.000000 1.000000
vn -0.000000 0.000000 1.000000
vn -0.000000 0.000000 1.000000
vn 0.000000 0.000000 1.000000
vn 0.000000 0.000000 1.000000
vn -0.000000 0.000000 1.000000
vn -0.000000 0.000000 1.000000
vn 0.000000 0.000000 1.000000
vn 0.000000 0.000000 1.000000
vn -0.000000 0.000000 1.000000
vn -0.000000 0.000000 1.000000
vn 0.000000 0.000000 1.000000
vn 0.000000 0.000000 1.000000
vn -0.000000 0.000000 1.000000
vn -0.000000 0.000000 1.000000
vn -0.000000 0.000000 1.000000
vn 0.000000 0.000000 1.000000
vn 0.000000 0.000000 1.000000
vn 0.000000 0.000000 1.000000
vn 0.000000 0.000000 1.000000
vn 0.000000 0.000000 1.000000
vn 0.000000 0.000000 1.000000
vn 0.000000 0.000000 1.000000
vn 0.000000 0.000000 1.000000
vn 0.000000 0.000000 1.000000
vn 0.000000 0.000000 1.000000
vn 0.000000 0.000000 1.000000
vn 0.000000 0.000000 1.000000
vn 0.000000 0.000000 1.000000
vn 0.000000 0.000000 1.000000
vn 0.000000 0.000000 1.000000
vn -0.000000 0.000000 1.000000
vn 0.000000 0.000000 1.000000
vn 0.000000 0.000000 1.000000
vn 0.000000 0.000000 1.000000
vn -0.000000 0.000000 1.000000
vn -0.000000 0.000000 1.000000
vn 0.000000 0.000000 1.000000
vn -0.000000 0.000000 1.000000
vn 0.000000 0.000000 1.000000
vn -0.000000 0.000000 1.000000
vn 0.000000 0.000000 1.000000
vn 0.000000 0.000000 1.000000
vn -0.000000 0.000000 1.000000
vn 0.000000 0.000000 1.000000
vn 0.000000 0.000000 1.000000
vn 0.000000 0.000000 1.000000
vn -0.000000 0.000000 1.000000
vn -0.000000 0.000000 1.000000
vn 0.000000 0.000000 1.000000
vn 0.000000 0.000000 1.000000
vn 0.000000 0.000000 1.000000
vn -0.000000 0.000000 1.000000
vn 0.000000 0.000000 1.000000
vn -0.000000 0.000000 1.000000
vn 0.000000 0.000000 1.000000
vn 0.000000 0.000000 1.000000
vn -0.000000 0.000000 1.000000
vn -0.000000 0.000000 1.000000
vn 0.000000 0.000000 1.000000
vn 0.000000 0.000000 1.000000
vn -0.000000 0.000000 1.000000
vn 0.000000 0.000000 1.000000
vn 0.000000 0.000000 1.000000
vn 0.000000 0.000000 1.000000
vn 0.000000 0.000000 1.000000
vn -0.000000 0.000000 1.000000
vn -0.000000 0.000000 1.000000
vn 0.000000 0.000000 1.000000
vn -0.000000 0.000000 1.000000
vn -0.000000 0.000000 1.000000
vn -0.000000 0.000000 1.000000
vn -0.000000 0.000000 1.000000
vn -0.000000 0.000000 1.000000
vn 0.000000 0.000000 1.000000
vn 0.000000 0.000000 1.000000
vn -0.000000 0.000000 1.000000
vn 0.000000 0.000000 1.000000
vn 0.000000 0.000000 1.000000
vn 0.000000 0.000000 1.000000
vn 0.000000 0.000000 1.000000
vn 0.000000 0.000000 1.000000
vn 0.000000 0.000000 1.000000
vn 0.000000 0.000000 1.000000
vn 0.000000 0.000000 1.000000
vn 0.000000 0.000000 1.000000
vn 0.000000 0.000000 1.000000
vn 0.000000 0.000000 1.000000
vn 0.000000 0.000000 1.000000
#end 384 vertex normals

#begin texture vertices
vt 0.498750 0.500000 0.000000
vt 0.415625 0.500000 0.000000
vt 0.332500 0.500000 0.000000
vt 0.249375 0.500000 0.000000
vt 0.166250 0.500000 0.000000
vt 0.083125 0.500000 0.000000
vt 0.000000 0.500000 0.000000
vt 0.498845 0.499522 0.000000
vt 0.422048 0.467711 0.000000
vt 0.345250 0.435901 0.000000
vt 0.268453 0.404090 0.000000
vt 0.191655 0.372279 0.000000
vt 0.114858 0.340469 0.000000
vt 0.038060 0.308658 0.000000
vt 0.499116 0.499116 0.000000
vt 0.440338 0.440338 0.000000
vt 0.381560 0.381560 0.000000
vt 0.322781 0.322781 0.000000
vt 0.264003 0.264003 0.000000
vt 0.205225 0.205225 0.000000
vt 0.146447 0.146447 0.000000
vt 0.499522 0.498845 0.000000
vt 0.467711 0.422048 0.000000
vt 0.435901 0.345250 0.000000
vt 0.404090 0.268453 0.000000
vt 0.372279 0.191655 0.000000
vt 0.340469 0.114858 0.000000
vt 0.308658 0.038060 0.000000
vt 0.500000 0.498750 0.000000
vt 0.500000 0.415625 0.000000
vt 0.500000 0.332500 0.000000
vt 0.500000 0.249375 0.000000
vt 0.500000 0.166250 0.000000
vt 0.500000 0.083125 0.000000
vt 0.500000 0.000000 0.000000
vt 0.500478 0.498845 0.000000
vt 0.532289 0.422048 0.000000
vt 0.564099 0.345250 0.000000
vt 0.595910 0.268453 0.000000
vt 0.627721 0.191655 0.000000
vt 0.659531 0.114858 0.000000
vt 0.691342 0.038060 0.000000
vt 0.500884 0.499116 0.000000
vt 0.559662 0.440338 0.000000
vt 0.618440 0.381560 0.000000
vt 0.677219 0.322781 0.000000
vt 0.735997 0.264003 0.000000
vt 0.794775 0.205225 0.000000
vt 0.853553 0.146447 0.000000
vt 0.501155 0.499522 0.000000
vt 0.577952 0.467711 0.000000
vt 0.654750 0.435901 0.000000
vt 0.731547 0.404090 0.000000
vt 0.808345 0.372279 0.000000
vt 0.885142 0.340469 0.000000
vt 0.961940 0.308658 0.000000
vt 0.501250 0.500000 0.000000
vt 0.584375 0.500000 0.000000
vt 0.667500 0.500000 0.000000
vt 0.750625 0.500000 0.000000
vt 0.833750 0.500000 0.000000
vt 0.916875 0.500000 0.000000
vt 1.000000 0.500000 0.000000
vt 0.501155 0.500478 0.000000
vt 0.577952 0.532289 0.000000
vt 0.654750 0.564099 0.000000
vt 0.731547 0.595910 0.000000
vt 0.808345 0.627721 0.000000
vt 0.885142 0.659531 0.000000
vt 0.961940 0.691342 0.000000
vt 0.500884 0.500884 0.000000
vt 0.559662 0.559662 0.000000
vt 0.618440 0.618440 0.000000
vt 0.677219 0.677219 0.000000
vt 0.735997 0.735997 0.000000
vt 0.794775 0.794775 0.000000
vt 0.853553 0.853553 0.000000
vt 0.500478 0.501155 0.000000
vt 0.532289 0.577952 0.000000
vt 0.564099 0.654750 0.000000
vt 0.595910 0.731547 0.000000
vt 0.627721 0.808345 0.000000
vt 0.659531 0.885142 0.000000
vt 0.691342 0.961940 0.000000
vt 0.500000 0.501250 0.000000
vt 0.500000 0.584375 0.000000
vt 0.500000 0.667500 0.000000
vt 0.500000 0.750625 0.000000
vt 0.500000 0.833750 0.000000
vt 0.500000 0.916875 0.000000
vt 0.500000 1.000000 0.000000
vt 0.499522 0.501155 0.000000
vt 0.467711 0.577952 0.000000
vt 0.435901 0.654750 0.000000
vt 0.404090 0.731547 0.000000
vt 0.372279 0.808345 0.000000
vt 0.340469 0.885142 0.000000
vt 0.308658 0.961940 0.000000
vt 0.499116 0.500884 0.000000
vt 0.440338 0.559662 0.000000
vt 0.381560 0.618440 0.000000
vt 0.322781 0.677219 0.000000
vt 0.264003 0.735997 0.000000
vt 0.205225 0.794775 0.000000
vt 0.146447 0.853553 0.000000
vt 0.498845 0.500478 0.000000
vt 0.422048 0.532289 0.000000
vt 0.345250 0.564099 0.000000
vt 0.268453 0.595910 0.000000
vt 0.191655 0.627721 0.000000
vt 0.114858 0.659531 0.000000
vt 0.038060 0.691342 0.000000
#end 112 texture vertices

#begin 96 faces
f 1/1/1 2/2/2 9/9/3 8/8/4 
f 2/2/5 3/3/6 10/10/7 9/9/8 
f 3/3/9 4/4/10 11/11/11 10/10/12 
f 4/4/13 5/5/14 12/12/15 11/11/16 
f 5/5/17 6/6/18 13/13/19 12/12/20 
f 6/6/21 7/7/22 14/14/23 13/13/24 
f 8/8/25 9/9/26 16/16/27 15/15/28 
f 9/9/29 10/10/30 17/17/31 16/16/32 
f 10/10/33 11/11/34 18/18/35 17/17/36 
f 11/11/37 12/12/38 19/19/39 18/18/40 
f 12/12/41 13/13/42 20/20/43 19/19/44 
f 13/13/45 14/14/46 21/21/47 20/20/48 
f 15/15/49 16/16/50 23/23/51 22/22/52 
f 16/16/53 17/17/54 24/24/55 23/23/56 
f 17/17/57 18/18/58 25/25/59 24/24/60 
f 18/18/61 19/19/62 26/26/63 25/25/64 
f 19/19/65 20/20/66 27/27/67 26/26/68 
f 20/20/69 21/21/70 28/28/71 27/27/72 
f 22/22/73 23/23/74 30/30/75 29/29/76 
f 23/23/77 24/24/78 31/31/79 30/30/80 
f 24/24/81 25/25/82 32/32/83 31/31/84 
f 25/25/85 26/26/86 33/33/87 32/32/88 
f 26/26/89 27/27/90 34/34/91 33/33/92 
f 27/27/93 28/28/94 35/35/95 34/34/96 
f 29/29/97 30/30/98 37/37/99 36/36/100 
f 30/30/101 31/31/102 38/38/103 37/37/104 
f 31/31/105 32/32/106 39/39/107 38/38/108 
f 32/32/109 33/33/110 40/40/111 39/39/112 
f 33/33/113 34/34/114 41/41/115 40/40/116 
f 34/34/117 35/35/118 42/42/119 41/41/120 
f 36/36/121 37/37/122 44/44/123 43/43/124 
f 37/37/125 38/38/126 45/45/127 44/44/128 
f 38/38/129 39/39/130 46/46/131 45/45/132 
f 39/39/133 40/40/134 47/47/135 46/46/136 
f 40/40/137 41/41/138 48/48/139 47/47/140 
f 41/41/141 42/42/142 49/49/143 48/48/144 
f 43/43/145 44/44/146 51/51/147 50/50/148 
f 44/44/149 45/45/150 52/52/151 51/51/152 
f 45/45/153 46/46/154 53/53/155 52/52/156 
f 46/46/157 47/47/158 54/54/159 53/53/160 
f 47/47/161 48/48/162 55/55/163 54/54/164 
f 48/48/165 49/49/166 56/56/167 55/55/168 
f 50/50/169 51/51/170 58/58/171 57/57/172 
f 51/51/173 52/52/174 59/59/175 58/58/176 
f 52/52/177 53/53/178 60/60/179 59/59/180 
f 53/53/181 54/54/182 61/61/183 60/60/184 
f 54/54/185 55/55/186 62/62/187 61/61/188 
f 55/55/189 56/56/190 63/63/191 62/62/192 
f 57/57/193 58/58/194 65/65/195 64/64/196 
f 58/58/197 59/59/198 66/66/199 65/65/200 
f 59/59/201 60/60/202 67/67/203 66/66/204 
f 60/60/205 61/61/206 68/68/207 67/67/208 
f 61/61/209 62/62/210 69/69/211 68/68/212 
f 62/62/213 63/63/214 70/70/215 69/69/216 
f 64/64/217 65/65/218 72/72/219 71/71/220 
f 65/65/221 66/66/222 73/73/223 72/72/224 
f 66/66/225 67/67/226 74/74/227 73/73/228 
f 67/67/229 68/68/230 75/75/231 74/74/232 
f 68/68/233 69/69/234 76/76/235 75/75/236 
f 69/69/237 70/70/238 77/77/239 76/76/240 
f 71/71/241 72/72/242 79/79/243 78/78/244 
f 72/72/245 73/73/246 80/80/247 79/79/248 
f 73/73/249 74/74/250 81/81/251 80/80/252 
f 74/74/253 75/75/254 82/82/255 81/81/256 
f 75/75/257 76/76/258 83/83/259 82/82/260 
f 76/76/261 77/77/262 84/84/263 83/83/264 
f 78/78/265 79/79/266 86/86/267 85/85/268 
f 79/79/269 80/80/270 87/87/271 86/86/272 
f 80/80/273 81/81/274 88/88/275 87/87/276 
f 81/81/277 82/82/278 89/89/279 88/88/280 
f 82/82/281 83/83/282 90/90/283 89/89/284 
f 83/83/285 84/84/286 91/91/287 90/90/288 
f 85/85/289 86/86/290 93/93/291 92/92/292 
f 86/86/293 87/87/294 94/94/295 93/93/296 
f 87/87/297 88/88/298 95/95/299 94/94/300 
f 88/88/301 89/89/302 96/96/303 95/95/304 
f 89/89/305 90/90/306 97/97/307 96/96/308 
f 90/90/309 91/91/310 98/98/311 97/97/312 
f 92/92/313 93/93/314 100/100/315 99/99/316 
f 93/93/317 94/94/318 101/101/319 100/100/320 
f 94/94/321 95/95/322 102/102/323 101/101/324 
f 95/95/325 96/96/326 103/103/327 102/102/328 
f 96/96/329 97/97/330 104/104/331 103/103/332 
f 97/97/333 98/98/334 105/105/335 104/104/336 
f 99/99/337 100/100/338 107/107/339 106/106/340 
f 100/100/341 101/101/342 108/108/343 107/107/344 
f 101/101/345 102/102/346 109/109/347 108/108/348 
f 102/102/349 103/103/350 110/110/351 109/109/352 
f 103/103/353 104/104/354 111/111/355 110/110/356 
f 104/104/357 105/105/358 112/112/359 111/111/360 
f 106/106/361 107/107/362 2/2/363 1/1/364 
f 107/107/365 108/108/366 3/3/367 2/2/368 
f 108/108/369 109/109/370 4/4/371 3/3/372 
f 109/109/373 110/110/374 5/5/375 4/4/376 
f 110/110/377 111/111/378 6/6/379 5/5/380 
f 111/111/381 112/112/382 7/7/383 6/6/384 
#end 96 faces
