{
    "asset" : {
        "generator" : "Khronos glTF Blender I/O v3.4.50",
        "version" : "2.0"
    },
    "scene" : 0,
    "scenes" : [
        {
            "name" : "Scene",
            "nodes" : [
                0
            ]
        }
    ],
    "nodes" : [
        {
            "mesh" : 0,
            "name" : "amphitheatre-small-01-col"
        }
    ],
    "meshes" : [
        {
            "name" : "Cylinder",
            "primitives" : [
                {
                    "attributes" : {
                        "POSITION" : 0,
                        "TEXCOORD_0" : 1,
                        "NORMAL" : 2
                    },
                    "indices" : 3
                }
            ]
        }
    ],
    "accessors" : [
        {
            "bufferView" : 0,
            "componentType" : 5126,
            "count" : 2017,
            "max" : [
                10.431282043457031,
                4.0388641357421875,
                10.053171157836914
            ],
            "min" : [
                -10.431282043457031,
                -9.948952772731445e-10,
                -10.431282043457031
            ],
            "type" : "VEC3"
        },
        {
            "bufferView" : 1,
            "componentType" : 5126,
            "count" : 2017,
            "type" : "VEC2"
        },
        {
            "bufferView" : 2,
            "componentType" : 5126,
            "count" : 2017,
            "type" : "VEC3"
        },
        {
            "bufferView" : 3,
            "componentType" : 5123,
            "count" : 8388,
            "type" : "SCALAR"
        }
    ],
    "bufferViews" : [
        {
            "buffer" : 0,
            "byteLength" : 24204,
            "byteOffset" : 0,
            "target" : 34962
        },
        {
            "buffer" : 0,
            "byteLength" : 16136,
            "byteOffset" : 24204,
            "target" : 34962
        },
        {
            "buffer" : 0,
            "byteLength" : 24204,
            "byteOffset" : 40340,
            "target" : 34962
        },
        {
            "buffer" : 0,
            "byteLength" : 16776,
            "byteOffset" : 64544,
            "target" : 34963
        }
    ],
    "buffers" : [
        {
            "byteLength" : 81320,
            "uri" : "data:application/octet-stream;base64,"
        }
    ]
}
