{
    "asset" : {
        "generator" : "Khronos glTF Blender I/O v3.4.50",
        "version" : "2.0"
    },
    "scene" : 0,
    "scenes" : [
        {
            "name" : "Scene",
            "nodes" : [
                0
            ]
        }
    ],
    "nodes" : [
        {
            "mesh" : 0,
            "name" : "ground-channel-01",
            "translation" : [
                0,
                0,
                5.599999904632568
            ]
        }
    ],
    "meshes" : [
        {
            "name" : "Cylinder.001",
            "primitives" : [
                {
                    "attributes" : {
                        "POSITION" : 0,
                        "TEXCOORD_0" : 1,
                        "NORMAL" : 2
                    },
                    "indices" : 3
                }
            ]
        }
    ],
    "accessors" : [
        {
            "bufferView" : 0,
            "componentType" : 5126,
            "count" : 4929,
            "max" : [
                1,
                0,
                6.600000381469727
            ],
            "min" : [
                -1,
                -1,
                -6.600000381469727
            ],
            "type" : "VEC3"
        },
        {
            "bufferView" : 1,
            "componentType" : 5126,
            "count" : 4929,
            "type" : "VEC2"
        },
        {
            "bufferView" : 2,
            "componentType" : 5126,
            "count" : 4929,
            "type" : "VEC3"
        },
        {
            "bufferView" : 3,
            "componentType" : 5123,
            "count" : 15300,
            "type" : "SCALAR"
        }
    ],
    "bufferViews" : [
        {
            "buffer" : 0,
            "byteLength" : 59148,
            "byteOffset" : 0,
            "target" : 34962
        },
        {
            "buffer" : 0,
            "byteLength" : 39432,
            "byteOffset" : 59148,
            "target" : 34962
        },
        {
            "buffer" : 0,
            "byteLength" : 59148,
            "byteOffset" : 98580,
            "target" : 34962
        },
        {
            "buffer" : 0,
            "byteLength" : 30600,
            "byteOffset" : 157728,
            "target" : 34963
        }
    ],
    "buffers" : [
        {
            "byteLength" : 188328,
            "uri" : "data:application/octet-stream;base64,"
        }
    ]
}
