{
	"asset":{
		"generator":"Khronos glTF Blender I/O v3.5.30",
		"version":"2.0"
	},
	"scene":0,
	"scenes":[
		{
			"name":"Scene",
			"nodes":[
				0
			]
		}
	],
	"nodes":[
		{
			"mesh":0,
			"name":"bollard-01-retracted"
		}
	],
	"meshes":[
		{
			"name":"Cube.016",
			"primitives":[
				{
					"attributes":{
						"POSITION":0,
						"TEXCOORD_0":1,
						"NORMAL":2
					},
					"indices":3
				}
			]
		}
	],
	"accessors":[
		{
			"bufferView":0,
			"componentType":5126,
			"count":2128,
			"max":[
				0.783501148223877,
				0.4161943197250366,
				1
			],
			"min":[
				-0.783501148223877,
				-2.936875581741333,
				-0.9056602120399475
			],
			"type":"VEC3"
		},
		{
			"bufferView":1,
			"componentType":5126,
			"count":2128,
			"type":"VEC2"
		},
		{
			"bufferView":2,
			"componentType":5126,
			"count":2128,
			"type":"VEC3"
		},
		{
			"bufferView":3,
			"componentType":5123,
			"count":5739,
			"type":"SCALAR"
		}
	],
	"bufferViews":[
		{
			"buffer":0,
			"byteLength":25536,
			"byteOffset":0,
			"target":34962
		},
		{
			"buffer":0,
			"byteLength":17024,
			"byteOffset":25536,
			"target":34962
		},
		{
			"buffer":0,
			"byteLength":25536,
			"byteOffset":42560,
			"target":34962
		},
		{
			"buffer":0,
			"byteLength":11478,
			"byteOffset":68096,
			"target":34963
		}
	],
	"buffers":[
		{
			"byteLength":79576,
			"uri":"data:application/octet-stream;base64,"
		}
	]
}
