{
    "asset" : {
        "generator" : "Khronos glTF Blender I/O v3.4.50",
        "version" : "2.0"
    },
    "scene" : 0,
    "scenes" : [
        {
            "name" : "Scene",
            "nodes" : [
                0
            ]
        }
    ],
    "nodes" : [
        {
            "mesh" : 0,
            "name" : "bollard-02-piece-01"
        }
    ],
    "meshes" : [
        {
            "name" : "Cube.001",
            "primitives" : [
                {
                    "attributes" : {
                        "POSITION" : 0,
                        "TEXCOORD_0" : 1,
                        "NORMAL" : 2
                    },
                    "indices" : 3
                }
            ]
        }
    ],
    "accessors" : [
        {
            "bufferView" : 0,
            "componentType" : 5126,
            "count" : 1654,
            "max" : [
                3.3049166202545166,
                2.9996607303619385,
                1.0103737115859985
            ],
            "min" : [
                -0.9967429637908936,
                0,
                -1.0103737115859985
            ],
            "type" : "VEC3"
        },
        {
            "bufferView" : 1,
            "componentType" : 5126,
            "count" : 1654,
            "type" : "VEC2"
        },
        {
            "bufferView" : 2,
            "componentType" : 5126,
            "count" : 1654,
            "type" : "VEC3"
        },
        {
            "bufferView" : 3,
            "componentType" : 5123,
            "count" : 5874,
            "type" : "SCALAR"
        }
    ],
    "bufferViews" : [
        {
            "buffer" : 0,
            "byteLength" : 19848,
            "byteOffset" : 0,
            "target" : 34962
        },
        {
            "buffer" : 0,
            "byteLength" : 13232,
            "byteOffset" : 19848,
            "target" : 34962
        },
        {
            "buffer" : 0,
            "byteLength" : 19848,
            "byteOffset" : 33080,
            "target" : 34962
        },
        {
            "buffer" : 0,
            "byteLength" : 11748,
            "byteOffset" : 52928,
            "target" : 34963
        }
    ],
    "buffers" : [
        {
            "byteLength" : 64676,
            "uri" : "data:application/octet-stream;base64,"
        }
    ]
}
