{
    "asset" : {
        "generator" : "Khronos glTF Blender I/O v3.4.50",
        "version" : "2.0"
    },
    "scene" : 0,
    "scenes" : [
        {
            "name" : "Scene",
            "nodes" : [
                0
            ]
        }
    ],
    "nodes" : [
        {
            "mesh" : 0,
            "name" : "shell-barrier-01",
            "rotation" : [
                0,
                0.7071068286895752,
                0,
                0.7071068286895752
            ],
            "translation" : [
                -2.6010000705718994,
                0.04797075316309929,
                -1.2370001077651978
            ]
        }
    ],
    "meshes" : [
        {
            "name" : "Cube.006",
            "primitives" : [
                {
                    "attributes" : {
                        "POSITION" : 0,
                        "TEXCOORD_0" : 1,
                        "NORMAL" : 2
                    },
                    "indices" : 3
                }
            ]
        }
    ],
    "accessors" : [
        {
            "bufferView" : 0,
            "componentType" : 5126,
            "count" : 6683,
            "max" : [
                1.1507700681686401,
                2.01422381401062,
                1.598909616470337
            ],
            "min" : [
                -4.539892196655273,
                -0.04833865165710449,
                0.11269418150186539
            ],
            "type" : "VEC3"
        },
        {
            "bufferView" : 1,
            "componentType" : 5126,
            "count" : 6683,
            "type" : "VEC2"
        },
        {
            "bufferView" : 2,
            "componentType" : 5126,
            "count" : 6683,
            "type" : "VEC3"
        },
        {
            "bufferView" : 3,
            "componentType" : 5123,
            "count" : 31320,
            "type" : "SCALAR"
        }
    ],
    "bufferViews" : [
        {
            "buffer" : 0,
            "byteLength" : 80196,
            "byteOffset" : 0,
            "target" : 34962
        },
        {
            "buffer" : 0,
            "byteLength" : 53464,
            "byteOffset" : 80196,
            "target" : 34962
        },
        {
            "buffer" : 0,
            "byteLength" : 80196,
            "byteOffset" : 133660,
            "target" : 34962
        },
        {
            "buffer" : 0,
            "byteLength" : 62640,
            "byteOffset" : 213856,
            "target" : 34963
        }
    ],
    "buffers" : [
        {
            "byteLength" : 276496,
            "uri" : "data:application/octet-stream;base64,"
        }
    ]
}
